<?xml version="1.0" encoding="utf-8"?>
<!-- Generator: Adobe Illustrator 26.3.1, SVG Export Plug-In . SVG Version: 6.00 Build 0)  -->
<svg version="1.1" id="레이어_1" xmlns="http://www.w3.org/2000/svg" xmlns:xlink="http://www.w3.org/1999/xlink" x="0px"
	 y="0px" viewBox="0 0 230.99 110.99" style="enable-background:new 0 0 230.99 110.99;" xml:space="preserve">
<style type="text/css">
	.st0{fill:#E83827;}
</style>
<g>
	<path class="st0" d="M101.95,38.87L101.95,38.87c-2.37,0-4.29,1.92-4.29,4.28v24.96h8.57V43.16
		C106.24,40.79,104.32,38.87,101.95,38.87"/>
	<path class="st0" d="M89.06,38.87H76.65c-2.37,0-4.28,1.92-4.28,4.28c0,2.37,1.92,4.28,4.28,4.28h8.57c0.95,0,1.72,0.77,1.72,1.72
		v18.96h8.57V45.32C95.51,41.76,92.62,38.87,89.06,38.87"/>
	<path class="st0" d="M124.62,59.93c-3.55,0-6.43-2.88-6.43-6.43c0-3.55,2.88-6.43,6.43-6.43c3.55,0,6.43,2.88,6.43,6.43
		C131.06,57.05,128.18,59.93,124.62,59.93 M145.56,38.87c-2.37,0-4.28,1.92-4.28,4.28v6.26h-2.61c-1.77-6.09-7.38-10.54-14.04-10.54
		c-8.07,0-14.62,6.54-14.62,14.62c0,8.07,6.55,14.62,14.62,14.62c6.51,0,12.02-4.25,13.92-10.13h2.74v10.13h8.57V43.16
		C149.85,40.79,147.93,38.87,145.56,38.87"/>
	<path class="st0" d="M160.5,49.16c0-0.95,0.77-1.72,1.72-1.72h2.73v12.1h-2.73c-0.95,0-1.72-0.77-1.72-1.72V49.16z M151.91,45.32
		v2.12v12.04v0.06v2.12c0,3.56,2.89,6.45,6.45,6.45h16.57v-8.57h-2.3v-12.1h2.3v-8.57h-16.57C154.8,38.87,151.91,41.76,151.91,45.32
		"/>
	<path class="st0" d="M203.47,59.74c-2.39,0-4.33,1.94-4.33,4.33c0,2.39,1.94,4.33,4.33,4.33c2.39,0,4.33-1.94,4.33-4.33
		C207.81,61.68,205.87,59.74,203.47,59.74"/>
	<path class="st0" d="M59.12,55.42c0.08-0.63,0.13-1.27,0.13-1.92c0-0.64-0.05-1.27-0.12-1.89h2.96v3.82H59.12z M44.63,59.93
		c-3.55,0-6.43-2.88-6.43-6.43c0-3.55,2.88-6.43,6.43-6.43c3.55,0,6.43,2.88,6.43,6.43C51.06,57.05,48.18,59.93,44.63,59.93
		 M66.37,38.87c-2.37,0-4.28,1.92-4.28,4.28v0.77v0.25H55.9c-2.68-3.24-6.74-5.31-11.27-5.31c-8.07,0-14.62,6.54-14.62,14.62
		c0,8.07,6.55,14.62,14.62,14.62c4.53,0,8.59-2.06,11.27-5.31h6.19v0.25v5.06h8.57V43.16C70.66,40.79,68.74,38.87,66.37,38.87"/>
	<path class="st0" d="M187.11,38.89c-5.54,0-10.02,4.49-10.02,10.02v19.21h8.57V48.91c0-0.8,0.65-1.45,1.45-1.45
		c0.8,0,1.45,0.65,1.45,1.45v19.21h8.57V48.91C197.13,43.37,192.64,38.89,187.11,38.89"/>
</g>
</svg>
